Coordinates
nRows=7
nColumns=38

# SIMM Motion File Header:
name Coordinates
datacolumns 38
datarows 7
otherdata 1
range 0.50800000000000001000 0.51400000000000001000

Units are S.I. units (second, meters, Newtons, ...)
Angles are in degrees.

endheader
time	pelvis_tilt	pelvis_list	pelvis_rotation	pelvis_tx	pelvis_ty	pelvis_tz	hip_flexion_r	hip_adduction_r	hip_rotation_r	knee_angle_r	ankle_angle_r	subtalar_angle_r	mtp_angle_r	hip_flexion_l	hip_adduction_l	hip_rotation_l	knee_angle_l	ankle_angle_l	subtalar_angle_l	mtp_angle_l	lumbar_extension	lumbar_bending	lumbar_rotation	arm_flex_r	arm_add_r	arm_rot_r	elbow_flex_r	pro_sup_r	wrist_flex_r	wrist_dev_r	arm_flex_l	arm_add_l	arm_rot_l	elbow_flex_l	pro_sup_l	wrist_flex_l	wrist_dev_l
      0.50800000000000001000	     -9.22355018886023360000	      1.75876003878529660000	      3.54639793079351630000	      0.78957246519416246000	      1.00832725155416260000	     -0.33669846737093501000	     -5.17339278251293510000	     -0.25339862211877801000	    -12.67889327533200500000	    -64.16838559961973900000	    -21.83394833264337700000	     -0.00000000000019459106	     -0.00000000000007764677	     32.72322521435716400000	      7.28072407456311850000	     -5.68083562022111540000	    -15.27055262036396500000	     -7.49229474335076520000	     -0.00000000000001299181	      0.00000000000011279822	      3.84679381754217610000	      0.56182873850732784000	      7.17728523036812140000	    -15.51104098895113600000	    -16.42167888904595000000	      0.27353333420917686000	     98.59871105315339400000	     83.68549753554093200000	      0.00000000000010885616	      0.00000000000002727124	    -46.69681475376671600000	    -40.46202304595806300000	     16.33577926731873800000	    105.81347731776445000000	     65.68427733227697700000	      0.00000000000000090132	      0.00000000000001298509
      0.50900000000000001000	     -9.14486768322439230000	      1.77054017900654490000	      3.56454626475820420000	      0.78948539152389063000	      1.00787431615724500000	     -0.33663179353640432000	     -5.07790702309142270000	     -0.33291111634443538000	    -12.76563206290835800000	    -64.77920320311925200000	    -21.64987479982565700000	     -0.00000000000019559886	     -0.00000000000007797209	     32.54871791661834400000	      7.27128128742273110000	     -5.76753783379984060000	    -15.16014309467412200000	     -7.57164702171366420000	     -0.00000000000001305848	      0.00000000000011333486	      3.75354253558932700000	      0.50702572444974847000	      7.11670141429307450000	    -15.55788926608645700000	    -16.41840463504459500000	      0.31602452909137047000	     98.41522571104479800000	     83.55203647420725600000	      0.00000000000010934713	      0.00000000000002738677	    -46.49804092144095300000	    -40.49270163620182900000	     16.37935878668226400000	    105.81965497694681000000	     65.70426995731362800000	      0.00000000000000090580	      0.00000000000001305129
      0.51000000000000001000	     -9.06635020007427880000	      1.78239634421371140000	      3.58246232140403450000	      0.78939509355280801000	      1.00741159709282920000	     -0.33656353136677525000	     -4.98005013757300570000	     -0.41209942562668878000	    -12.84916291743180000000	    -65.39020525632227500000	    -21.46513234117807700000	     -0.00000000000019660874	     -0.00000000000007829776	     32.37877472262344700000	      7.26119128934876910000	     -5.85236958418396110000	    -15.06747091595385000000	     -7.64819967839302080000	     -0.00000000000001312550	      0.00000000000011386762	      3.66037003923723380000	      0.45186514933400768000	      7.05471210553113170000	    -15.60362847038426000000	    -16.41564620255163100000	      0.36071496761273125000	     98.22873274162860500000	     83.41444488905806100000	      0.00000000000010983834	      0.00000000000002750371	    -46.29662041386996000000	    -40.52346281919686500000	     16.42449759402640200000	    105.82437580250411000000	     65.72391148688993200000	      0.00000000000000090933	      0.00000000000001311634
      0.51100000000000001000	     -8.98790983427184290000	      1.79431589670035830000	      3.60018478142746940000	      0.78930157811520107000	      1.00693927477275990000	     -0.33649381356741742000	     -4.87990628398830230000	     -0.49091489990241316000	    -12.92958361070340000000	    -66.00131188580182600000	    -21.27986502702197000000	     -0.00000000000019761808	     -0.00000000000007862433	     32.21323849256214100000	      7.25049630405358590000	     -5.93505112059641600000	    -14.99241984014159000000	     -7.72166233048842090000	     -0.00000000000001319381	      0.00000000000011440028	      3.56716227027984090000	      0.39637394195116094000	      6.99126339953503970000	    -15.64821273957663400000	    -16.41342852583237600000	      0.40762932592413076000	     98.03928228199410500000	     83.27289207070701600000	      0.00000000000011032969	      0.00000000000002762284	    -46.09261865991941000000	    -40.55427290396708900000	     16.47119143859422200000	    105.82767517533848000000	     65.74321844190062300000	      0.00000000000000091317	      0.00000000000001318160
      0.51200000000000001000	     -8.90944780995974210000	      1.80627725139951710000	      3.61773831730021160000	      0.78920487167966591000	      1.00645751975864890000	     -0.33642276518558611000	     -4.77757119166751480000	     -0.56930517230477173000	    -13.00698484306017000000	    -66.61244440437636200000	    -21.09421478476338800000	     -0.00000000000019862516	     -0.00000000000007895307	     32.05192722563479900000	      7.23924373455949870000	     -6.01512115646824340000	    -14.93486111684709200000	     -7.79088599192350450000	     -0.00000000000001326328	      0.00000000000011493687	      3.47379406015573760000	      0.34059326151624525000	      6.92631454970088000000	    -15.69160273037765300000	    -16.41178378904642100000	      0.45678805924494342000	     97.84693724668827000000	     83.12755122302162600000	      0.00000000000011082093	      0.00000000000002774207	    -45.88610303467781600000	    -40.58509614596530200000	     16.51943447900230700000	    105.82959515073058000000	     65.76221196029357000000	      0.00000000000000091747	      0.00000000000001324778
      0.51300000000000001000	     -8.83097537009681940000	      1.81823341208101620000	      3.63524028752472450000	      0.78910493441153529000	      1.00596632807276220000	     -0.33635064970209860000	     -4.67303360940852030000	     -0.64719721208599479000	    -13.08154492818169400000	    -67.22353323673775100000	    -20.90831615139564900000	     -0.00000000000019962827	     -0.00000000000007928299	     31.89480627017086800000	      7.22750425778154160000	     -6.09207383863210780000	    -14.89472373169008900000	     -7.85493610918254160000	     -0.00000000000001333381	      0.00000000000011547676	      3.38026349874857910000	      0.28457487511610507000	      6.85973908026904230000	    -15.73377580966917000000	    -16.41073692814118700000	      0.50820612668969112000	     97.65176413220393700000	     82.97860980707919500000	      0.00000000000011131222	      0.00000000000002786055	    -45.67716852777679300000	    -40.61590042014344700000	     16.56921235414160200000	    105.83018042174497000000	     65.78092190020116400000	      0.00000000000000092169	      0.00000000000001331561
      0.51400000000000001000	     -8.75282295743154570000	      1.83009441219272500000	      3.65310680244670530000	      0.78900149535169450000	      1.00546526017598210000	     -0.33627813593831879000	     -4.56597664571606200000	     -0.72447933228297112000	    -13.15371618306080800000	    -67.83452982373395900000	    -20.72228586519316500000	     -0.00000000000020063086	     -0.00000000000007961223	     31.74229731795978900000	      7.21539547139776170000	     -6.16588767613010270000	    -14.87215255704931500000	     -7.91526343046347150000	     -0.00000000000001340264	      0.00000000000011601630	      3.28692008429045400000	      0.22835882283308034000	      6.79113432158560220000	    -15.77473613567669600000	    -16.41027242553612500000	      0.56189196206976699000	     97.45380940036518800000	     82.82629178571845300000	      0.00000000000011180353	      0.00000000000002797806	    -45.46598223513505800000	    -40.64667341611773600000	     16.62048796997164100000	    105.82947157216445000000	     65.79939168043627300000	      0.00000000000000092680	      0.00000000000001338458
